<mxfile host="app.diagrams.net" modified="2020-12-17T12:12:00.256Z" agent="5.0 (Macintosh; Intel Mac OS X 10_15_6) AppleWebKit/605.1.15 (KHTML, like Gecko) Version/14.0.1 Safari/605.1.15" etag="7tJTBn5l3s7knCzZb2hA" version="14.0.4" type="github">
  <diagram id="2nOC1Z1M6-mjOfD4xlBl" name="Page-1">
    <mxGraphModel dx="1103" dy="711" grid="1" gridSize="10" guides="1" tooltips="1" connect="1" arrows="1" fold="1" page="1" pageScale="1" pageWidth="850" pageHeight="1100" math="0" shadow="0">
      <root>
        <mxCell id="0" />
        <mxCell id="1" parent="0" />
        <mxCell id="vJD7hrBimLyGLLyz8hDZ-2" value="" style="rounded=0;orthogonalLoop=1;jettySize=auto;html=1;" edge="1" parent="1" source="k2_k3ALxHLvJ5MJxsclW-1" target="vJD7hrBimLyGLLyz8hDZ-1">
          <mxGeometry relative="1" as="geometry" />
        </mxCell>
        <mxCell id="k2_k3ALxHLvJ5MJxsclW-1" value="LB service a" style="rounded=0;whiteSpace=wrap;html=1;" parent="1" vertex="1">
          <mxGeometry x="200" y="160" width="120" height="40" as="geometry" />
        </mxCell>
        <mxCell id="vJD7hrBimLyGLLyz8hDZ-17" style="edgeStyle=none;rounded=0;orthogonalLoop=1;jettySize=auto;html=1;fillColor=#ffe6cc;strokeColor=#d79b00;" edge="1" parent="1" source="k2_k3ALxHLvJ5MJxsclW-7" target="vJD7hrBimLyGLLyz8hDZ-13">
          <mxGeometry relative="1" as="geometry" />
        </mxCell>
        <mxCell id="vJD7hrBimLyGLLyz8hDZ-18" style="edgeStyle=none;rounded=0;orthogonalLoop=1;jettySize=auto;html=1;fillColor=#ffe6cc;strokeColor=#d79b00;" edge="1" parent="1" source="k2_k3ALxHLvJ5MJxsclW-7" target="vJD7hrBimLyGLLyz8hDZ-15">
          <mxGeometry relative="1" as="geometry" />
        </mxCell>
        <mxCell id="vJD7hrBimLyGLLyz8hDZ-19" style="edgeStyle=none;rounded=0;orthogonalLoop=1;jettySize=auto;html=1;fillColor=#ffe6cc;strokeColor=#d79b00;" edge="1" parent="1" source="k2_k3ALxHLvJ5MJxsclW-7" target="vJD7hrBimLyGLLyz8hDZ-16">
          <mxGeometry relative="1" as="geometry" />
        </mxCell>
        <mxCell id="k2_k3ALxHLvJ5MJxsclW-7" value="Redis" style="shape=cylinder3;whiteSpace=wrap;html=1;boundedLbl=1;backgroundOutline=1;size=15;rotation=0;" parent="1" vertex="1">
          <mxGeometry x="600" y="260" width="60" height="80" as="geometry" />
        </mxCell>
        <mxCell id="vJD7hrBimLyGLLyz8hDZ-4" value="" style="edgeStyle=none;rounded=0;orthogonalLoop=1;jettySize=auto;html=1;" edge="1" parent="1" source="k2_k3ALxHLvJ5MJxsclW-1" target="vJD7hrBimLyGLLyz8hDZ-3">
          <mxGeometry relative="1" as="geometry" />
        </mxCell>
        <mxCell id="vJD7hrBimLyGLLyz8hDZ-1" value="a1" style="rounded=0;whiteSpace=wrap;html=1;" vertex="1" parent="1">
          <mxGeometry x="440" y="80" width="40" height="40" as="geometry" />
        </mxCell>
        <mxCell id="vJD7hrBimLyGLLyz8hDZ-6" value="" style="edgeStyle=none;rounded=0;orthogonalLoop=1;jettySize=auto;html=1;fillColor=#ffe6cc;strokeColor=#d79b00;" edge="1" parent="1" source="k2_k3ALxHLvJ5MJxsclW-1" target="vJD7hrBimLyGLLyz8hDZ-5">
          <mxGeometry relative="1" as="geometry" />
        </mxCell>
        <mxCell id="vJD7hrBimLyGLLyz8hDZ-3" value="a2" style="rounded=0;whiteSpace=wrap;html=1;" vertex="1" parent="1">
          <mxGeometry x="440" y="160" width="40" height="40" as="geometry" />
        </mxCell>
        <mxCell id="vJD7hrBimLyGLLyz8hDZ-5" value="a3" style="rounded=0;whiteSpace=wrap;html=1;" vertex="1" parent="1">
          <mxGeometry x="440" y="240" width="40" height="40" as="geometry" />
        </mxCell>
        <mxCell id="vJD7hrBimLyGLLyz8hDZ-7" value="" style="endArrow=classic;html=1;fillColor=#ffe6cc;strokeColor=#d79b00;" edge="1" parent="1" source="k2_k3ALxHLvJ5MJxsclW-7" target="vJD7hrBimLyGLLyz8hDZ-3">
          <mxGeometry width="50" height="50" relative="1" as="geometry">
            <mxPoint x="420" y="450" as="sourcePoint" />
            <mxPoint x="470" y="400" as="targetPoint" />
          </mxGeometry>
        </mxCell>
        <mxCell id="vJD7hrBimLyGLLyz8hDZ-8" value="" style="endArrow=classic;html=1;fillColor=#ffe6cc;strokeColor=#d79b00;startArrow=classic;startFill=1;" edge="1" parent="1" source="vJD7hrBimLyGLLyz8hDZ-5" target="k2_k3ALxHLvJ5MJxsclW-7">
          <mxGeometry width="50" height="50" relative="1" as="geometry">
            <mxPoint x="301.42857142857133" y="330" as="sourcePoint" />
            <mxPoint x="267.1428571428571" y="410" as="targetPoint" />
          </mxGeometry>
        </mxCell>
        <mxCell id="vJD7hrBimLyGLLyz8hDZ-9" value="" style="endArrow=classic;html=1;fillColor=#ffe6cc;strokeColor=#d79b00;" edge="1" parent="1" source="k2_k3ALxHLvJ5MJxsclW-7" target="vJD7hrBimLyGLLyz8hDZ-1">
          <mxGeometry width="50" height="50" relative="1" as="geometry">
            <mxPoint x="272.3376623376623" y="410" as="sourcePoint" />
            <mxPoint x="311.42857142857133" y="340" as="targetPoint" />
          </mxGeometry>
        </mxCell>
        <mxCell id="vJD7hrBimLyGLLyz8hDZ-10" value="" style="rounded=0;orthogonalLoop=1;jettySize=auto;html=1;" edge="1" source="vJD7hrBimLyGLLyz8hDZ-11" target="vJD7hrBimLyGLLyz8hDZ-13" parent="1">
          <mxGeometry relative="1" as="geometry" />
        </mxCell>
        <mxCell id="vJD7hrBimLyGLLyz8hDZ-11" value="LB service &amp;nbsp;b" style="rounded=0;whiteSpace=wrap;html=1;" vertex="1" parent="1">
          <mxGeometry x="200" y="400" width="120" height="40" as="geometry" />
        </mxCell>
        <mxCell id="vJD7hrBimLyGLLyz8hDZ-12" value="" style="edgeStyle=none;rounded=0;orthogonalLoop=1;jettySize=auto;html=1;" edge="1" source="vJD7hrBimLyGLLyz8hDZ-11" target="vJD7hrBimLyGLLyz8hDZ-15" parent="1">
          <mxGeometry relative="1" as="geometry" />
        </mxCell>
        <mxCell id="vJD7hrBimLyGLLyz8hDZ-13" value="b1" style="rounded=0;whiteSpace=wrap;html=1;" vertex="1" parent="1">
          <mxGeometry x="440" y="320" width="40" height="40" as="geometry" />
        </mxCell>
        <mxCell id="vJD7hrBimLyGLLyz8hDZ-14" value="" style="edgeStyle=none;rounded=0;orthogonalLoop=1;jettySize=auto;html=1;" edge="1" source="vJD7hrBimLyGLLyz8hDZ-11" target="vJD7hrBimLyGLLyz8hDZ-16" parent="1">
          <mxGeometry relative="1" as="geometry" />
        </mxCell>
        <mxCell id="vJD7hrBimLyGLLyz8hDZ-15" value="b2" style="rounded=0;whiteSpace=wrap;html=1;" vertex="1" parent="1">
          <mxGeometry x="440" y="400" width="40" height="40" as="geometry" />
        </mxCell>
        <mxCell id="vJD7hrBimLyGLLyz8hDZ-16" value="b3" style="rounded=0;whiteSpace=wrap;html=1;" vertex="1" parent="1">
          <mxGeometry x="440" y="480" width="40" height="40" as="geometry" />
        </mxCell>
        <mxCell id="vJD7hrBimLyGLLyz8hDZ-20" value="&lt;font color=&quot;#ffb366&quot;&gt;update&lt;/font&gt;" style="text;html=1;align=center;verticalAlign=middle;whiteSpace=wrap;rounded=0;rotation=0;" vertex="1" parent="1">
          <mxGeometry x="80" y="160" width="40" height="20" as="geometry" />
        </mxCell>
        <mxCell id="vJD7hrBimLyGLLyz8hDZ-21" value="" style="endArrow=classic;html=1;fillColor=#ffe6cc;strokeColor=#d79b00;" edge="1" parent="1" target="k2_k3ALxHLvJ5MJxsclW-1">
          <mxGeometry width="50" height="50" relative="1" as="geometry">
            <mxPoint x="80" y="180" as="sourcePoint" />
            <mxPoint x="470" y="410" as="targetPoint" />
          </mxGeometry>
        </mxCell>
      </root>
    </mxGraphModel>
  </diagram>
</mxfile>
